<svg width="136" height="27" viewBox="0 0 136 27" fill="none" xmlns="http://www.w3.org/2000/svg">
<path d="M0.465909 0.636363H3.40909L10.3295 17.5398H10.5682L17.4886 0.636363H20.4318V21H18.125V5.52841H17.9261L11.5625 21H9.33523L2.97159 5.52841H2.77273V21H0.465909V0.636363ZM31.2624 21.3182C29.8836 21.3182 28.6739 20.9901 27.6332 20.3338C26.5991 19.6776 25.7904 18.7595 25.207 17.5795C24.6303 16.3996 24.342 15.0208 24.342 13.4432C24.342 11.8523 24.6303 10.4635 25.207 9.27699C25.7904 8.09043 26.5991 7.16903 27.6332 6.51278C28.6739 5.85653 29.8836 5.52841 31.2624 5.52841C32.6412 5.52841 33.8477 5.85653 34.8817 6.51278C35.9225 7.16903 36.7312 8.09043 37.3079 9.27699C37.8912 10.4635 38.1829 11.8523 38.1829 13.4432C38.1829 15.0208 37.8912 16.3996 37.3079 17.5795C36.7312 18.7595 35.9225 19.6776 34.8817 20.3338C33.8477 20.9901 32.6412 21.3182 31.2624 21.3182ZM31.2624 19.2102C32.3098 19.2102 33.1715 18.9418 33.8477 18.4048C34.5238 17.8679 35.0243 17.1619 35.3491 16.2869C35.6739 15.4119 35.8363 14.464 35.8363 13.4432C35.8363 12.4223 35.6739 11.4711 35.3491 10.5895C35.0243 9.70786 34.5238 8.99526 33.8477 8.4517C33.1715 7.90814 32.3098 7.63636 31.2624 7.63636C30.2151 7.63636 29.3533 7.90814 28.6772 8.4517C28.0011 8.99526 27.5006 9.70786 27.1758 10.5895C26.851 11.4711 26.6886 12.4223 26.6886 13.4432C26.6886 14.464 26.851 15.4119 27.1758 16.2869C27.5006 17.1619 28.0011 17.8679 28.6772 18.4048C29.3533 18.9418 30.2151 19.2102 31.2624 19.2102ZM42.0831 21V0.636363H44.4297V8.15341H44.6286C44.8009 7.88826 45.0395 7.55019 45.3445 7.1392C45.656 6.72159 46.1001 6.35038 46.6768 6.02557C47.2602 5.69413 48.049 5.52841 49.0433 5.52841C50.3293 5.52841 51.4628 5.84991 52.4439 6.4929C53.425 7.13589 54.1906 8.04735 54.7408 9.22727C55.291 10.4072 55.5661 11.7992 55.5661 13.4034C55.5661 15.0208 55.291 16.4228 54.7408 17.6094C54.1906 18.7893 53.4283 19.7041 52.4538 20.3537C51.4794 20.9967 50.3558 21.3182 49.0831 21.3182C48.102 21.3182 47.3165 21.1558 46.7266 20.831C46.1366 20.4995 45.6825 20.125 45.3643 19.7074C45.0462 19.2831 44.8009 18.9318 44.6286 18.6534H44.3501V21H42.0831ZM44.3899 13.3636C44.3899 14.517 44.5589 15.5346 44.897 16.4162C45.2351 17.2912 45.7289 17.9773 46.3786 18.4744C47.0282 18.965 47.8236 19.2102 48.7649 19.2102C49.746 19.2102 50.5646 18.9517 51.2209 18.4347C51.8838 17.911 52.3809 17.2083 52.7124 16.3267C53.0504 15.4384 53.2195 14.4508 53.2195 13.3636C53.2195 12.2898 53.0537 11.322 52.7223 10.4602C52.3975 9.59186 51.9036 8.90578 51.2408 8.40199C50.5845 7.89157 49.7592 7.63636 48.7649 7.63636C47.8104 7.63636 47.0083 7.87831 46.3587 8.36222C45.709 8.83949 45.2185 9.509 44.8871 10.3707C44.5556 11.2259 44.3899 12.2235 44.3899 13.3636ZM59.1555 21V5.72727H61.5021V21H59.1555ZM60.3487 3.18182C59.8913 3.18182 59.4969 3.02604 59.1655 2.71449C58.8407 2.40294 58.6783 2.02841 58.6783 1.59091C58.6783 1.15341 58.8407 0.778882 59.1655 0.467329C59.4969 0.155776 59.8913 0 60.3487 0C60.8061 0 61.1972 0.155776 61.522 0.467329C61.8535 0.778882 62.0192 1.15341 62.0192 1.59091C62.0192 2.02841 61.8535 2.40294 61.522 2.71449C61.1972 3.02604 60.8061 3.18182 60.3487 3.18182ZM68.1467 0.636363V21H65.8001V0.636363H68.1467ZM78.848 21.3182C77.3764 21.3182 76.107 20.9934 75.0398 20.3438C73.9792 19.6875 73.1605 18.7727 72.5838 17.5994C72.0137 16.4195 71.7287 15.0473 71.7287 13.483C71.7287 11.9186 72.0137 10.5398 72.5838 9.34659C73.1605 8.14678 73.9626 7.21212 74.9901 6.54261C76.0241 5.86648 77.2306 5.52841 78.6094 5.52841C79.4048 5.52841 80.1903 5.66098 80.9659 5.92614C81.7415 6.19129 82.4474 6.62216 83.0838 7.21875C83.7202 7.80871 84.2273 8.59091 84.6051 9.56534C84.983 10.5398 85.1719 11.7396 85.1719 13.1648V14.1591H73.3991V12.1307H82.7855C82.7855 11.2689 82.6132 10.5 82.2685 9.82386C81.9304 9.14773 81.4465 8.61411 80.8168 8.22301C80.1937 7.83191 79.4579 7.63636 78.6094 7.63636C77.6747 7.63636 76.866 7.86837 76.1832 8.33239C75.5071 8.78977 74.9867 9.38636 74.6222 10.1222C74.2576 10.858 74.0753 11.6468 74.0753 12.4886V13.8409C74.0753 14.9943 74.2741 15.9721 74.6719 16.7741C75.0762 17.5696 75.6364 18.1761 76.3523 18.5938C77.0682 19.0047 77.9001 19.2102 78.848 19.2102C79.4645 19.2102 80.0213 19.1241 80.5185 18.9517C81.0223 18.7727 81.4564 18.5076 81.821 18.1562C82.1856 17.7983 82.4673 17.3542 82.6662 16.8239L84.9332 17.4602C84.6946 18.2292 84.2936 18.9053 83.7301 19.4886C83.1667 20.0653 82.4706 20.5161 81.642 20.8409C80.8134 21.1591 79.8821 21.3182 78.848 21.3182ZM93.2358 21.358C92.268 21.358 91.3897 21.1757 90.6009 20.8111C89.812 20.4399 89.1856 19.9062 88.7216 19.2102C88.2576 18.5076 88.0256 17.6591 88.0256 16.6648C88.0256 15.7898 88.1979 15.0805 88.5426 14.5369C88.8873 13.9867 89.348 13.5559 89.9247 13.2443C90.5014 12.9328 91.1378 12.7008 91.8338 12.5483C92.5365 12.3892 93.2424 12.2633 93.9517 12.1705C94.8797 12.0511 95.6321 11.9616 96.2088 11.902C96.7921 11.8357 97.2164 11.7263 97.4815 11.5739C97.7533 11.4214 97.8892 11.1562 97.8892 10.7784V10.6989C97.8892 9.7178 97.6207 8.95549 97.0838 8.41193C96.5535 7.86837 95.7481 7.59659 94.6676 7.59659C93.5473 7.59659 92.669 7.84186 92.0327 8.33239C91.3963 8.82292 90.9489 9.34659 90.6903 9.90341L88.4631 9.10795C88.8608 8.17992 89.3911 7.45739 90.054 6.94034C90.7235 6.41667 91.4527 6.05208 92.2415 5.84659C93.0369 5.63447 93.8191 5.52841 94.5881 5.52841C95.0786 5.52841 95.642 5.58807 96.2784 5.70739C96.9214 5.82007 97.5412 6.0554 98.1378 6.41335C98.741 6.77131 99.2415 7.31155 99.6392 8.03409C100.037 8.75663 100.236 9.72443 100.236 10.9375V21H97.8892V18.9318H97.7699C97.6108 19.2633 97.3456 19.6179 96.9744 19.9957C96.6032 20.3736 96.1094 20.6951 95.4929 20.9602C94.8764 21.2254 94.1241 21.358 93.2358 21.358ZM93.5938 19.25C94.5218 19.25 95.304 19.0677 95.9403 18.7031C96.5833 18.3385 97.0672 17.8679 97.392 17.2912C97.7235 16.7145 97.8892 16.108 97.8892 15.4716V13.3239C97.7898 13.4432 97.571 13.5526 97.233 13.652C96.9015 13.7448 96.517 13.8277 96.0795 13.9006C95.6487 13.9669 95.2277 14.0265 94.8168 14.0795C94.4124 14.1259 94.0843 14.1657 93.8324 14.1989C93.2225 14.2784 92.6525 14.4077 92.1222 14.5866C91.5985 14.759 91.1742 15.0208 90.8494 15.3722C90.5313 15.7169 90.3722 16.1875 90.3722 16.7841C90.3722 17.5994 90.6738 18.2159 91.277 18.6335C91.8868 19.0445 92.6591 19.25 93.5938 19.25ZM104.519 26.7273V5.72727H106.786V8.15341H107.064C107.237 7.88826 107.475 7.55019 107.78 7.1392C108.092 6.72159 108.536 6.35038 109.113 6.02557C109.696 5.69413 110.485 5.52841 111.479 5.52841C112.765 5.52841 113.899 5.84991 114.88 6.4929C115.861 7.13589 116.626 8.04735 117.176 9.22727C117.727 10.4072 118.002 11.7992 118.002 13.4034C118.002 15.0208 117.727 16.4228 117.176 17.6094C116.626 18.7893 115.864 19.7041 114.89 20.3537C113.915 20.9967 112.792 21.3182 111.519 21.3182C110.538 21.3182 109.752 21.1558 109.162 20.831C108.572 20.4995 108.118 20.125 107.8 19.7074C107.482 19.2831 107.237 18.9318 107.064 18.6534H106.865V26.7273H104.519ZM106.826 13.3636C106.826 14.517 106.995 15.5346 107.333 16.4162C107.671 17.2912 108.165 17.9773 108.814 18.4744C109.464 18.965 110.259 19.2102 111.201 19.2102C112.182 19.2102 113 18.9517 113.657 18.4347C114.319 17.911 114.817 17.2083 115.148 16.3267C115.486 15.4384 115.655 14.4508 115.655 13.3636C115.655 12.2898 115.489 11.322 115.158 10.4602C114.833 9.59186 114.339 8.90578 113.676 8.40199C113.02 7.89157 112.195 7.63636 111.201 7.63636C110.246 7.63636 109.444 7.87831 108.794 8.36222C108.145 8.83949 107.654 9.509 107.323 10.3707C106.991 11.2259 106.826 12.2235 106.826 13.3636ZM121.581 26.7273V5.72727H123.848V8.15341H124.127C124.299 7.88826 124.538 7.55019 124.843 7.1392C125.154 6.72159 125.598 6.35038 126.175 6.02557C126.758 5.69413 127.547 5.52841 128.542 5.52841C129.828 5.52841 130.961 5.84991 131.942 6.4929C132.923 7.13589 133.689 8.04735 134.239 9.22727C134.789 10.4072 135.064 11.7992 135.064 13.4034C135.064 15.0208 134.789 16.4228 134.239 17.6094C133.689 18.7893 132.926 19.7041 131.952 20.3537C130.978 20.9967 129.854 21.3182 128.581 21.3182C127.6 21.3182 126.815 21.1558 126.225 20.831C125.635 20.4995 125.181 20.125 124.863 19.7074C124.544 19.2831 124.299 18.9318 124.127 18.6534H123.928V26.7273H121.581ZM123.888 13.3636C123.888 14.517 124.057 15.5346 124.395 16.4162C124.733 17.2912 125.227 17.9773 125.877 18.4744C126.526 18.965 127.322 19.2102 128.263 19.2102C129.244 19.2102 130.063 18.9517 130.719 18.4347C131.382 17.911 131.879 17.2083 132.211 16.3267C132.549 15.4384 132.718 14.4508 132.718 13.3636C132.718 12.2898 132.552 11.322 132.221 10.4602C131.896 9.59186 131.402 8.90578 130.739 8.40199C130.083 7.89157 129.257 7.63636 128.263 7.63636C127.309 7.63636 126.507 7.87831 125.857 8.36222C125.207 8.83949 124.717 9.509 124.385 10.3707C124.054 11.2259 123.888 12.2235 123.888 13.3636Z" fill="white"/>
</svg>
